# xmcd
#
# Track frame offsets: 
#        150
#        13883
#        30265
#        43998
#        57860
#        67630
#        86010
#        97210
#        113120
#        134213
#        145445
#        159510
#        170720
#        186130
#        199485
#        216213
#        229838
#        244480
#        256195
#
# Disc length: 3609 seconds
#
# Revision: 0
# Processed by: cddbd v1.5.2PL0 Copyright (c) Steve Scherf et al.
# Submitted via: ExactAudioCopy v0.95b4
#
DISCID=210e1713
DTITLE=Roosevelt Sykes - The Honeydripper
DYEAR=1997
DGENRE=Blues
TTITLE0=Big Ben
TTITLE1=Boot That Thing
TTITLE2=Springfield Blues
TTITLE3=Henry Ford Blues
TTITLE4=I'm A Dangerous Man
TTITLE5=True Thing
TTITLE6=You Understand
TTITLE7=Whole Lot Of Children
TTITLE8=The Last Laugh
TTITLE9=Gold Mine
TTITLE10=44 Blues
TTITLE11=Sugar Cup
TTITLE12=You Deceived Me
TTITLE13=Crow Hopping Blues
TTITLE14=The Way I Feel
TTITLE15=Under-eyes Woman
TTITLE16=9 Hours Call
TTITLE17=No Money Down
TTITLE18=Baby Child
EXTD=
EXTT0=
EXTT1=
EXTT2=
EXTT3=
EXTT4=
EXTT5=
EXTT6=
EXTT7=
EXTT8=
EXTT9=
EXTT10=
EXTT11=
EXTT12=
EXTT13=
EXTT14=
EXTT15=
EXTT16=
EXTT17=
EXTT18=
PLAYORDER=
